<svg width="32" height="70" viewBox="0 0 32 70" fill="none" xmlns="http://www.w3.org/2000/svg">
<rect width="32" height="70" fill="#1E1E1E"/>
<rect x="0.5" y="69.5" width="69" height="31" rx="15.5" transform="rotate(-90 0.5 69.5)" stroke="white"/>
<path d="M26 33.6667C26 36.4445 25.0278 38.8056 23.0833 40.7501C21.1389 42.6945 18.7778 43.6667 16 43.6667C13.2222 43.6667 10.8611 42.6945 8.91667 40.7501C6.97222 38.8056 6 36.4445 6 33.6667L6 17.0001C6 14.2223 6.97222 11.8612 8.91667 9.91675C10.8611 7.9723 13.2222 7.00008 16 7.00008C18.7778 7.00008 21.1389 7.9723 23.0833 9.91675C25.0278 11.8612 26 14.2223 26 17.0001V33.6667ZM22.6667 33.6667V17.0001C22.6667 15.1667 22.0139 13.5973 20.7083 12.2917C19.4028 10.9862 17.8333 10.3334 16 10.3334C14.1667 10.3334 12.5972 10.9862 11.2917 12.2917C9.98611 13.5973 9.33333 15.1667 9.33333 17.0001L9.33333 33.6667C9.33333 35.5001 9.98611 37.0695 11.2917 38.3751C12.5972 39.6806 14.1667 40.3334 16 40.3334C17.8333 40.3334 19.4028 39.6806 20.7083 38.3751C22.0139 37.0695 22.6667 35.5001 22.6667 33.6667ZM21 17.0001C21 15.6112 20.5139 14.4306 19.5417 13.4584C18.5694 12.4862 17.3889 12.0001 16 12.0001C14.6111 12.0001 13.4306 12.4862 12.4583 13.4584C11.4861 14.4306 11 15.6112 11 17.0001C11 18.389 11.4861 19.5695 12.4583 20.5417C13.4306 21.514 14.6111 22.0001 16 22.0001C17.3889 22.0001 18.5694 21.514 19.5417 20.5417C20.5139 19.5695 21 18.389 21 17.0001Z" fill="#7FFF00"/>
</svg>
