<svg width="300" height="334" viewBox="0 0 300 334" fill="none" xmlns="http://www.w3.org/2000/svg">
<path d="M150 333.333L0 250V83.3333L150 0L300 83.3333V250L150 333.333ZM101.667 120.833C108.056 114.167 115.417 109.028 123.75 105.417C132.083 101.806 140.833 100 150 100C159.167 100 167.917 101.806 176.25 105.417C184.583 109.028 191.944 114.167 198.333 120.833L248.333 92.9167L150 38.3333L51.6667 92.9167L101.667 120.833ZM133.333 285.833V231.25C118.333 227.361 106.25 219.444 97.0833 207.5C87.9167 195.556 83.3333 181.944 83.3333 166.667C83.3333 163.611 83.4722 160.764 83.75 158.125C84.0278 155.486 84.5833 152.778 85.4167 150L33.3333 120.833V230.417L133.333 285.833ZM150 200C159.167 200 167.014 196.736 173.542 190.208C180.069 183.681 183.333 175.833 183.333 166.667C183.333 157.5 180.069 149.653 173.542 143.125C167.014 136.597 159.167 133.333 150 133.333C140.833 133.333 132.986 136.597 126.458 143.125C119.931 149.653 116.667 157.5 116.667 166.667C116.667 175.833 119.931 183.681 126.458 190.208C132.986 196.736 140.833 200 150 200ZM166.667 285.833L266.667 230.417V120.833L214.583 150C215.417 152.778 215.972 155.486 216.25 158.125C216.528 160.764 216.667 163.611 216.667 166.667C216.667 181.944 212.083 195.556 202.917 207.5C193.75 219.444 181.667 227.361 166.667 231.25V285.833Z" fill="#7FFF00" fill-opacity="0.6"/>
</svg>
